<svg width="137" height="137" viewBox="0 0 137 137" fill="none" xmlns="http://www.w3.org/2000/svg">
<path d="M68.5 39.958V119.875" stroke="black" stroke-width="2" stroke-linecap="round" stroke-linejoin="round"/>
<path d="M17.125 102.75C15.6111 102.75 14.1591 102.149 13.0886 101.078C12.0181 100.008 11.4167 98.5556 11.4167 97.0417V22.8333C11.4167 21.3194 12.0181 19.8675 13.0886 18.7969C14.1591 17.7264 15.6111 17.125 17.125 17.125H45.6667C51.7224 17.125 57.5302 19.5306 61.8123 23.8127C66.0944 28.0948 68.5 33.9026 68.5 39.9583C68.5 33.9026 70.9057 28.0948 75.1877 23.8127C79.4698 19.5306 85.2776 17.125 91.3333 17.125H119.875C121.389 17.125 122.841 17.7264 123.911 18.7969C124.982 19.8675 125.583 21.3194 125.583 22.8333V97.0417C125.583 98.5556 124.982 100.008 123.911 101.078C122.841 102.149 121.389 102.75 119.875 102.75H85.625C81.0832 102.75 76.7274 104.554 73.5158 107.766C70.3042 110.977 68.5 115.333 68.5 119.875C68.5 115.333 66.6958 110.977 63.4842 107.766C60.2727 104.554 55.9168 102.75 51.375 102.75H17.125Z" stroke="black" stroke-width="2" stroke-linecap="round" stroke-linejoin="round"/>
</svg>
