<svg width="841" height="847" viewBox="0 0 841 847" fill="none" xmlns="http://www.w3.org/2000/svg">
<path d="M353.465 141.621C353.645 141.582 353.821 141.529 354.003 141.505C369.835 139.422 392.322 144.367 408.13 146.535L490.887 158.179L590.738 172.074C617.437 175.727 644.533 178.999 670.891 184.659C677.076 185.986 685.309 187.88 690.09 192.358C696.7 198.549 687.929 208.005 685.09 213.983C682.811 218.781 681.364 224.079 681.581 229.429C682.311 247.369 702.424 259.791 702.386 267.99C702.347 276.407 678.222 277.082 672.4 279.185C669.337 280.291 666.511 282.672 664.254 284.99C655.229 294.257 648.077 308.584 648.223 321.765C648.328 331.251 652.03 339.444 658.753 345.996L659.915 346.154C662.165 346.441 663.907 346.78 665.806 348.121C668.21 349.821 670.069 352.273 670.56 355.241C670.599 355.47 670.628 355.7 670.645 355.932C670.662 356.164 670.667 356.396 670.661 356.628C670.654 356.861 670.636 357.092 670.606 357.322C670.575 357.553 670.534 357.781 670.481 358.007C670.428 358.233 670.364 358.456 670.289 358.676C670.213 358.895 670.126 359.11 670.029 359.321C669.931 359.532 669.824 359.737 669.706 359.937C669.588 360.137 669.46 360.33 669.323 360.516C665.129 366.317 654.213 367.131 647.73 368.306C660.328 378.519 676.083 385.573 685.476 399.371C697.597 417.178 697.366 441.884 693.597 462.304C703.334 464.593 713.145 466.442 722.93 468.504C734.29 470.897 745.622 473.49 757.013 475.732C770.014 478.291 783.879 479.947 796.415 484.281C798.87 485.13 800.855 486.663 801.939 489.093C806.408 499.116 790.35 502.124 784.964 507.125C779.789 511.931 776.558 519.145 774.232 525.694C770.018 537.556 768.805 552.818 780.682 560.856C785.659 564.225 794.793 565.675 797.283 571.633C798.022 573.403 797.746 575.137 796.94 576.829C795.588 579.667 793.07 581.162 790.265 582.286C786.039 583.98 781.577 585.216 777.252 586.634L757.126 593.429L693.9 614.894C629.834 637.009 565.972 659.706 502.314 682.985C484.887 689.317 467.409 695.853 449.787 701.608C438.907 705.161 429.965 704.062 419.076 700.95C399.409 695.328 380.597 686.052 361.652 678.367L260.058 637.546C214.54 619.504 169.168 601.096 123.943 582.322L85.7204 566.919C79.5496 564.415 72.9552 562.144 67.0517 559.073C55.4996 553.063 47.0644 540.994 43.2781 528.664C38.3094 512.483 40.6333 494.488 48.4917 479.646C51.4183 474.119 55.204 467.877 60.2048 463.996C70.7247 455.832 102.624 452.334 116.255 448.105C111.584 443.579 108.436 439.429 107.908 432.644C106.636 416.287 119.463 421.774 126.449 413.062C133.872 403.804 128.882 385.661 124.218 376.251C121.982 371.739 117.381 367.066 116.905 361.955C117.208 361.314 117.48 360.703 117.984 360.192C121.615 356.505 130.359 357.322 135.234 357.327C128.514 355.043 121.943 352.068 115.399 349.323C107.515 346.016 99.4581 342.82 91.9433 338.704C84.1747 334.449 79.3654 328.663 76.8868 320.078C71.9966 303.139 75.862 281.372 84.2831 266.163C86.6345 261.916 89.5303 257.636 93.3214 254.556C103.013 246.682 126.421 242.445 138.88 238.895C138.193 234.204 137.434 229.498 136.956 224.781C135.788 213.264 134.868 195.681 142.852 186.154C147.393 180.736 154.449 178.554 161.004 176.789C176.059 172.733 192.082 171.126 207.458 168.604C228.578 165.058 249.661 161.304 270.708 157.34C285.947 154.552 301.15 151.574 316.316 148.405C328.691 145.811 340.856 142.864 353.465 141.621ZM625.028 409.262C614.608 410.593 603.836 411.739 593.542 413.784C596.051 418.394 598.997 424.024 597.56 429.423L596.953 429.989C595.693 429.643 595.07 428.572 594.454 427.486C591.951 423.073 589.915 418.395 586.475 414.603L529.919 421.652C480.704 428.601 431.411 434.923 382.037 440.616C377.832 441.071 373.866 442.831 369.72 443.249C362.028 444.025 355.503 437.744 348.144 436.492C342.136 435.471 305.198 440.181 297.749 441.835C300.556 446.793 303.295 455.038 301.844 460.704C301.699 461.269 301.447 461.608 301.039 462.006C299.942 461.897 299.578 461.563 298.87 460.708C296.084 457.34 292.954 447.226 290.4 442.557C286.798 442.851 283.174 443.075 279.592 443.559C281.552 448.54 285.46 456.927 284.084 462.24L283.453 462.828C281.834 462.452 280.906 460.785 280.092 459.45C277.305 454.885 275.493 449.47 273.544 444.495C270.405 444.669 267.367 445.088 264.265 445.593C265.752 452.224 267.517 458.882 268.482 465.611C271.913 489.52 268.902 514.013 263.357 537.317C268.63 537.036 273.874 536.466 279.141 536.104C365.457 526.912 451.707 517.119 537.888 506.725C561.064 504.011 584.328 502.007 607.517 499.361C616.813 498.301 627.202 497.943 636.226 495.559L636.209 495.143C635.208 494.548 634.787 494.528 634.502 493.332C634.091 491.612 634.388 489.376 634.514 487.605C628.546 488.236 599.247 492.136 594.709 489.956L594.771 489.339C598.975 486.376 629.006 482.774 636.054 481.843C636.825 477.676 637.539 473.499 638.195 469.313C632.167 470.04 605.937 473.688 602.16 471.3C602.043 471.227 601.948 471.123 601.842 471.034C602.153 470.221 602.316 470.223 603.094 469.9C607.811 467.941 614.569 467.681 619.641 466.956C625.815 466.073 631.96 464.984 638.154 464.149C638.994 448.803 638.069 423.551 627.671 411.267C626.915 410.374 626.146 409.647 625.028 409.262ZM774.701 506.769C758.09 509.567 741.608 514.132 725.196 517.96L615.926 544.227L551.975 559.024C542.142 561.4 531.528 563.318 522.108 567.038L520.278 569.586C514.129 572.115 471.587 584.463 467.532 582.451C466.752 582.063 465.987 581.586 465.244 581.132C461.314 581.511 457.251 583.089 453.436 584.123C446.598 585.978 439.962 587.592 432.928 588.509L425.093 598.459C432.055 596.523 439.031 594.643 446.022 592.819C449.219 591.976 452.673 590.764 455.933 590.286C457.348 590.077 458.435 590.257 459.78 590.696L460.074 591.308C457.077 595.714 427.092 604.393 421.32 605.48C420.774 605.583 420.246 605.653 419.694 605.716C418.149 608.013 416.628 610.313 415.181 612.675C424.567 610.499 434.021 608.569 443.357 606.186C451.531 604.099 471.988 596.894 479.207 597.278L479.551 597.741C477.35 600.345 473.01 601.244 469.915 602.359C469.826 607.36 470.564 617.883 466.982 621.788C466.532 622.28 466.666 622.149 466.006 622.137C464.324 620.009 464.815 615.848 465.097 613.251C465.447 610.035 466.047 606.73 466.831 603.591C448.478 610.092 429.814 616.323 411.086 621.663C408.362 629.969 404.88 638.329 404.858 647.211C414.596 643.527 424.503 640.248 434.28 636.653C444.776 632.794 455.644 628.144 466.582 625.803C468.215 625.454 470.593 625.175 472.175 625.838C472.328 625.903 472.467 625.997 472.613 626.076L472.627 626.731C469.458 629.941 456.987 632.861 452.24 634.617C452.536 638.294 452.703 642.13 453.439 645.746C461.679 643.136 469.946 640.082 478.64 639.632C472.848 645.14 460.804 648.327 453.274 651.04C453.073 655.894 452.106 661.379 450.32 665.908C440.344 672.327 427.386 672.804 416.559 677.468C421.015 680.861 425.089 684.477 429.832 687.501C445.421 684.308 460.496 679.334 475.512 674.105L640.176 615.393C676.533 602.691 712.781 589.679 748.92 576.359C756.387 573.526 763.695 570.295 771.129 567.378C764.93 567.941 758.595 568.311 752.457 569.341C742.002 571.097 731.682 573.798 721.264 575.815C729.608 571.936 737.91 568.644 746.708 565.962C753.245 563.968 760.028 562.43 766.426 560.042L764.695 556.202L723.935 566.598C711.516 569.777 699.186 573.092 686.601 575.554C703.565 565.479 724.494 560.979 743.39 555.922C750.418 554.041 757.627 552.788 764.214 549.587C764.194 547.447 764.204 545.302 764.147 543.164C740.486 547.687 716.987 554.965 693.802 561.507C715.073 547.826 740.422 541.644 764.519 535.112L764.547 531.422L764.2 531.182C756.309 532.977 748.621 535.642 740.715 537.416C734.857 538.73 728.786 539.221 722.844 540.068C736.873 534.623 751.044 529.182 765.855 526.259C766.75 523.695 767.559 521.194 768.139 518.538C753.913 521.598 739.836 525.203 725.339 526.761C735.348 523.207 745.443 520.059 755.583 516.912C760.537 515.374 765.828 513.264 770.98 512.615C772.311 511.218 775.161 508.691 775.334 506.761L774.701 506.769ZM67.0078 468.2C56.6997 475.341 50.1087 488.992 47.9344 501.13C47.7864 501.969 47.6591 502.813 47.5525 503.659C47.4458 504.505 47.3601 505.353 47.2953 506.204C47.2305 507.055 47.1866 507.906 47.1637 508.758C47.1407 509.612 47.1388 510.464 47.1578 511.317C47.1768 512.17 47.2168 513.022 47.2778 513.873C47.3388 514.723 47.4206 515.572 47.5233 516.419C47.626 517.265 47.7495 518.109 47.8938 518.95C48.038 519.79 48.2028 520.626 48.3882 521.459C48.5736 522.291 48.7793 523.118 49.0055 523.94C49.2316 524.762 49.4778 525.578 49.7441 526.388C50.0103 527.198 50.2963 528 50.6021 528.796C50.9079 529.591 51.233 530.378 51.5775 531.158C51.922 531.937 52.2855 532.707 52.6679 533.469C53.0503 534.23 53.4512 534.981 53.8705 535.722C54.2899 536.463 54.7273 537.193 55.1826 537.912C55.6379 538.631 56.1106 539.339 56.6008 540.035C60.5533 545.682 65.3857 550.154 71.5538 553.229C79.3841 557.133 87.8295 560.093 95.9504 563.347L129.005 576.925L251.377 626.582C264.794 632.018 278.288 637.307 291.645 642.891C298.759 645.866 315.69 654.116 322.717 655.146C325.521 655.558 329.825 653.8 332.519 653.007C331.306 646.374 330.466 639.426 330.734 632.665C331.613 604.968 344.099 580.933 364.073 562.153C364.989 561.293 365.922 560.451 366.87 559.626C357.121 556.276 347.139 553.609 337.319 550.477C326.833 547.131 315.569 541.934 304.546 541.049C296.273 540.384 287.248 542.087 278.998 542.967C263.608 544.612 248.203 546.096 232.782 547.421C224.623 548.143 216.122 549.39 207.936 549.174C205.137 549.099 201.611 548.749 199.128 547.411C188.28 541.566 168.295 509.498 160.202 497.849C150.558 493.693 140.446 490.457 130.519 487.052C109.716 479.919 88.4487 473.105 67.0078 468.2ZM371.47 149.482C364.027 149.961 356.612 150.723 349.226 151.767C341.84 152.811 334.504 154.134 327.217 155.737C332.883 157.254 338.456 159.154 344.07 160.862C352.799 163.516 361.507 166.037 369.992 169.428C359.922 168.158 349.911 166.521 339.959 164.517C330.683 162.651 316.204 158.747 307.203 158.899C300.973 159.004 294.762 160.861 288.733 162.307C295.791 164.825 302.684 167.953 309.571 170.911C304.132 170.255 298.685 169.613 293.312 168.51C288.015 167.423 282.612 165.754 277.243 165.19C267.784 164.196 240.937 170.191 230.916 173.259C256.327 180.625 283.541 184.824 308.149 194.273C287.59 191.715 267.142 188.454 246.804 184.489C236.161 182.476 222.763 178.162 212.247 178.175C205.542 178.183 198.844 180.714 192.275 181.903C205.21 186.831 219.549 189.427 233.008 192.702C265.118 200.576 297.389 207.716 329.82 214.121C354.481 219.197 379.186 224.052 403.932 228.686C413.935 230.61 426.678 234.277 436.544 234.492C446.182 234.702 456.376 231.166 465.742 229.085L499.74 221.828C534.684 214.337 569.701 207.212 604.792 200.453C621.455 197.158 638.04 193.54 654.778 190.627C645.346 189.224 635.988 187.252 626.607 185.539C614.018 183.354 601.413 181.265 588.792 179.274C539.6 172.093 490.369 165.198 441.098 158.588C427.534 156.673 413.979 154.69 400.434 152.639C391.317 151.276 380.69 148.778 371.47 149.482ZM161.343 194.192C160.486 199.516 159.85 204.867 159.435 210.245C159.021 215.622 158.829 221.007 158.86 226.401C165.289 226.928 171.976 229.213 178.239 230.813C187.599 233.218 196.989 235.493 206.41 237.638C228.638 242.738 250.996 247.276 273.27 252.169C284.573 254.652 296.938 256.069 307.523 260.884C300.377 260.463 293.297 260.122 286.186 259.248C273.411 257.679 260.687 254.992 248.096 252.333C229.91 248.481 211.823 244.205 193.835 239.506C182.343 236.448 170.991 232.559 159.408 229.891C159.668 236.294 161.501 242.365 162.02 248.672C177.361 251.606 192.428 255.951 207.482 260.093L256.414 273.472C293.24 283.466 330.185 292.995 367.248 302.061L403.864 311.053C412.896 313.212 422.062 315.527 431.277 316.705C429.978 312.921 428.805 308.9 427.958 304.986L419.174 303.174L358.078 289.287C347.319 286.977 336.591 284.528 325.895 281.942C318.603 280.174 310.967 278.714 304.183 275.398C316.741 274.495 342.955 281.18 356.255 284.194C380.142 289.608 403.893 295.588 427.87 300.592C426.39 289.662 427.359 278.465 427.405 267.486C420.069 266.119 384.262 257.115 381.071 252.561C381.008 252.471 380.97 252.366 380.919 252.268C382.014 251.916 383.19 252.151 384.298 252.356C390.355 253.474 396.382 255.298 402.382 256.719C410.829 258.721 419.349 260.333 427.943 261.554L429.585 253.864C406.311 248.83 382.882 244.604 359.541 239.915C336.559 235.112 313.602 230.191 290.669 225.154C264.371 219.349 238.145 213.231 211.991 206.8C195.097 202.646 178.285 198.148 161.343 194.192ZM643.729 300.296C614.336 307.293 585.279 315.746 556.085 323.523C531.964 329.809 507.76 335.749 483.471 341.341C463.615 345.871 443.674 349.984 423.648 353.679C409.886 356.19 396.014 358.133 382.389 361.365C376.554 367.655 372.704 375.607 370.486 383.876C377.041 383.552 383.608 382.244 390.123 381.433C395.056 380.819 400.068 380.67 404.975 379.934C393.581 384.326 379.372 385.133 369.004 390.996C368.085 394.428 367.819 397.469 367.91 401.019C380.796 398.7 393.62 395.263 406.578 393.563C394.059 400.707 380.977 402.74 367.469 407.039C367.747 410.877 367.686 419.324 370.99 421.865C374.459 424.532 385.47 421.237 389.351 420.196C412.73 413.886 436.034 407.31 459.265 400.467C493.071 390.566 527.161 381.601 561.075 372.085C590.321 363.878 619.465 355.01 648.873 347.44C647.144 345.316 645.824 342.963 644.446 340.603C622.921 345.737 601.57 349.769 579.513 351.642C594.504 346.714 610.069 343.083 625.449 339.58C631.018 338.311 637.309 336.423 643.012 336.081L641.332 329.871C630.739 331.897 621.133 335.475 610.891 338.686C601.954 341.488 592.926 343.778 583.825 345.963C579.101 347.097 574.175 348.758 569.318 349.053C581.869 343.185 600.333 339.504 614.056 335.884C619 334.581 624.154 333.436 628.882 331.472C633.074 329.73 636.388 326.706 640.342 324.596C640.49 322.279 640.679 319.96 640.638 317.638H639.943C635.152 317.661 621.839 320.526 618.551 319.114L618.592 318.579C623.93 314.198 635.129 311.051 642.015 310.315L642.088 309.985C642.55 307.962 645.137 301.861 644.213 300.291L643.729 300.296ZM692.173 469.504C688.205 480.547 682.863 492.451 671.589 497.566C659.562 503.022 629.448 504.415 615.166 505.957L544.935 513.582L449.922 524.655C407.838 529.285 365.791 534.228 323.781 539.484C352.343 547.427 380.682 556.152 409.313 563.836C417.786 566.174 426.901 569.018 435.775 567.898C447.116 566.465 458.583 562.36 469.743 559.704L558.758 538.059L704.971 503.191L752.062 491.685C758.915 490.011 765.931 488.671 772.717 486.77C746.131 480.061 718.957 475.42 692.173 469.504ZM434.036 276.621L434.086 286.661C452.463 281.533 469.789 276.011 488.991 274.936C471.727 282.198 452.891 286.099 434.787 290.74C434.896 294.396 435.368 297.965 435.85 301.584C449.606 299.37 462.952 296.014 476.462 292.654C488.489 289.663 501.114 286.35 513.492 285.385L514.496 286.923C514.044 287.851 513.178 288.218 512.339 288.791C508.031 290.699 499.625 292.017 494.804 293.159C475.44 297.651 456.016 301.865 436.532 305.799C437.156 309.637 438.762 313.059 440.26 316.609C450.809 313.216 461.623 310.68 472.359 307.966L535.281 292.666C575.271 282.549 615.384 272.961 655.623 263.9C665.484 261.672 675.33 259.033 685.213 256.984C675.008 243.322 674.763 239.209 674.051 222.626C657.862 226.776 641.2 229.518 624.829 232.878C591.036 239.706 557.295 246.787 523.605 254.119C504.751 258.316 486.004 262.95 467.364 268.021C456.366 270.967 445.255 274.69 434.036 276.621ZM138.371 246.095C128.768 249.496 118.831 251.85 109.199 255.216C136.56 264.699 163.495 275.312 190.666 285.317L308.534 328.099L342.262 340.425C352.313 344.2 369.987 352.417 380.2 352.972C392.819 353.657 418.23 347.374 431.251 344.732C462.993 338.32 494.596 331.278 526.06 323.604C540.73 319.944 555.257 315.618 569.873 311.736C588.005 306.919 606.242 302.516 624.408 297.836C632.655 295.749 640.895 293.324 649.182 291.455C651.029 288.838 652.864 286.255 654.935 283.811L502.539 320.136C489.515 323.352 476.426 326.459 463.463 329.92C454.628 332.279 445.558 336.077 436.38 336.698C425.7 337.422 412.147 332.863 401.714 330.341C386.81 326.755 371.945 323.011 357.119 319.107C297.389 304.159 237.935 288.171 178.755 271.144C175.12 270.132 171.48 269.12 167.793 268.315C162.224 267.098 155.222 266.713 150.307 263.691C148.065 262.312 146.294 260.47 144.789 258.317C143.413 256.348 139.275 246.305 138.371 246.095ZM232.54 308.332C222.142 323.242 216.442 341.604 219.596 359.817C220.887 367.271 222.973 374.793 226.139 381.669C236.678 386.457 247.863 390.016 258.754 393.915C275.548 399.914 292.302 406.025 309.016 412.249L309.561 412.104C309.203 406.609 307.375 401.237 306.866 395.742C304.92 374.765 310.838 359.327 318.305 340.471C299.463 332.723 280.415 325.709 261.314 318.651C251.913 315.178 242.231 310.812 232.54 308.332ZM147.273 364.956C141.517 365.161 135.541 364.968 129.837 365.692C147.625 379.523 163.331 396.409 178.36 413.18C187.377 423.241 196.149 433.541 205.831 442.975C218.032 442.725 230.367 441.167 242.508 439.932L304.191 433.536C313.217 432.469 322.233 431.316 331.237 430.077C320.621 424.488 309.077 421.273 297.84 417.223L246.241 398.342L184.486 375.523C175.472 372.213 166.359 368.257 157.158 365.56C153.78 364.57 150.743 364.792 147.273 364.956ZM136.828 273.931C125.626 289.472 120.524 307.136 123.57 326.334C124.723 333.607 127.127 340.109 130.55 346.592C141.377 351.948 152.6 355.434 163.919 359.503L207.391 375.507L207.99 375.353C207.128 369.644 205.25 364.079 204.421 358.304C201.402 337.259 207.265 320.977 216.226 302.532C200.484 296.646 184.694 290.892 168.857 285.27C158.195 281.512 147.359 278.031 136.828 273.931ZM375.131 561.583C357.151 574.001 342.386 597.709 338.494 619.16C335.672 634.722 337.219 649.932 343.988 664.225C356.545 668.985 369.295 675.09 382.231 678.587L382.686 678.335C382.572 677.299 382.466 676.287 382.263 675.263C376.748 650.916 378.935 629.293 392.288 607.929C399.894 595.76 410.147 585.281 420.533 575.499C411.357 573.61 398.457 568.384 389.255 565.294C384.838 563.81 379.785 561.862 375.131 561.583ZM133.786 382C135.478 387.431 136.21 392.701 136.842 398.326C148.462 406.051 158.465 416.995 165.809 428.821C155.176 421.869 146.689 412.536 136.855 404.62C136.247 407.629 135.406 410.572 134.334 413.448C149.158 426.07 162.082 440.054 174.183 455.329C159.525 443.793 146.41 430.444 132.397 418.131C130.924 419.688 129.371 421.212 128 422.859C139.204 433.073 149.028 445.153 158.774 456.763C165.574 464.864 172.881 472.881 178.287 482.013C162.859 468.447 149.705 452.708 134.889 438.51C131.532 435.359 128.089 431.931 124.319 429.298L124.095 428.796L124.714 429.58L123.639 429.03C126.081 433.04 129.613 436.739 132.625 440.343C138.759 447.685 145.059 454.915 151.077 462.352C158.694 471.764 164.581 482.235 171.764 491.929C173.354 494.09 175.007 496.201 176.723 498.263C178.437 500.325 180.211 502.333 182.044 504.289C183.878 506.245 185.768 508.144 187.713 509.986C189.658 511.829 191.656 513.612 193.707 515.335C197.502 518.532 201.546 521.418 205.344 524.596C206.761 518.884 208.172 513.205 208.938 507.359C202.175 498.283 196.393 488.831 190.422 479.24C197.959 485.119 204.32 491.441 210.602 498.644C210.736 486.254 209.664 473.065 204.471 461.648C200.583 453.101 192.572 445.313 186.457 438.271C172.245 422.05 157.646 406.19 142.659 390.693C139.882 387.83 136.958 384.415 133.786 382ZM635.463 371.882C625.981 374.315 616.189 376.36 606.89 379.414C615.294 384.42 624.78 389.263 629.568 398.275C618.604 393.882 607.526 387.926 597.402 381.836C556.289 392.314 515.266 403.14 474.334 414.314C457.108 418.97 439.35 422.655 422.39 428.173C423.434 428.989 424.167 428.954 425.468 428.785L579.488 407.506L638.753 399.817C649.68 398.472 661.24 397.932 671.983 395.614C665.702 390.7 641.7 372.949 635.463 371.882ZM680.441 204.474L514.01 238.532L471.022 247.628C460.706 249.763 450.264 251.595 440.093 254.352C438.643 258.294 434.068 268.432 435.03 272.384C446.768 270.239 458.471 266.209 470.024 263.179C491.436 257.619 512.941 252.445 534.537 247.658C564.868 241.261 595.236 235.046 625.64 229.013C642.164 225.64 659.274 222.92 675.384 217.906C676.547 214.528 680.21 207.474 680.441 204.474ZM237.134 448.483C228.111 449.265 219.034 449.882 210.037 450.917C218.6 476.011 221.631 499.013 215.686 525.061C214.795 528.966 211.023 537.782 211.564 541.49C218.881 541.781 228.563 540.748 235.803 539.709C244.402 516.064 247.887 490.758 243.165 465.804C242.198 460.695 240.864 454.452 238.598 449.741C238.329 449.181 238.045 448.86 237.553 448.494L237.134 448.483ZM334.142 346.717C323.81 367.553 317.062 389.957 324.684 412.924C325.336 414.857 326.013 416.781 326.714 418.696C333.203 421.348 339.723 423.92 346.275 426.411C350.13 427.906 354.043 429.682 358.038 430.751C347.874 401.658 353.322 385.853 365.259 358.805C355.148 354.413 344.662 349.982 334.142 346.717ZM676.205 403.421C667.265 404.355 658.343 405.444 649.439 406.689C653.114 413.415 656.44 420.203 658.562 427.612C663.522 444.923 662.332 466.861 657.393 484.104C656.756 486.329 653.159 493.392 653.179 494.035L653.848 494.126C662.568 492.935 671.848 491.244 677.519 483.703C687.424 470.535 690.376 444.567 688.089 428.663C687.13 421.995 682.716 407.882 677.694 403.4C677.205 403.386 676.685 403.32 676.205 403.421ZM97.804 260.415C87.2299 270.067 82.6118 285.741 81.9723 299.755C81.5528 308.942 81.9465 319.806 88.5645 326.938C95.079 333.959 106.478 337.489 115.291 340.665C111.933 328.29 109.676 317.242 110.004 304.307C112.181 290.843 116.177 280.434 124.305 269.474C118.976 267.275 113.432 265.516 107.912 263.873C100.58 273.807 95.2555 284.841 88.2713 294.979C89.973 287.524 91.972 280.336 95.0305 273.3C96.5721 269.753 100.41 265.694 100.463 261.813C99.9196 260.961 99.6815 260.786 98.636 260.536C98.3633 260.472 98.0808 260.456 97.804 260.415ZM789.816 491.037C772.793 494.276 755.796 498.732 738.929 502.724L641.48 525.842C603.684 534.532 565.947 543.477 528.27 552.677C510.421 556.809 492.618 561.133 474.861 565.649C465.948 567.891 456.97 569.98 448.161 572.617C446.199 573.204 443.616 574.01 442.326 575.687C441.862 576.29 441.924 577.144 441.844 577.882L442.267 578.777C443.478 578.871 444.485 578.574 445.64 578.27C468.197 572.199 490.827 566.422 513.531 560.937L666.388 524.395C682.693 520.519 788.905 496.815 793.722 493.051L794.12 492.248C793.733 491.409 793.576 491.131 792.59 490.872C791.825 490.671 790.582 490.893 789.816 491.037ZM163.345 183.632L158.512 185.381C167.716 189.683 178.625 191.489 188.451 193.921C202.439 197.468 216.448 200.929 230.478 204.304C278.49 215.913 326.705 226.596 375.122 236.351L413.315 243.926C420.521 245.349 427.864 247.23 435.167 247.987C436.84 245.946 438.421 243.948 439.809 241.699C427.57 240.506 415.718 238.028 403.66 235.684L362.609 227.661C321.426 219.568 280.364 210.897 239.422 201.647C224.585 198.079 209.77 194.421 194.976 190.674C186.353 188.494 171.594 183.1 163.345 183.632ZM166.603 256.124L164.981 260.276C170.396 261.929 175.913 263.229 181.355 264.792C197.965 269.68 214.627 274.381 231.341 278.896C265.719 288.471 300.212 297.61 334.817 306.314C367.628 314.542 400.555 323.984 433.953 329.416L435.089 325.012C379.877 312.666 324.971 299.065 270.371 284.209L206.351 266.706C193.12 263.075 180.003 259.101 166.603 256.124ZM672.453 193.109C664.53 196.57 655.452 197.532 646.993 199.082C638.946 200.544 630.923 202.128 622.924 203.834C565.036 216.119 506.718 226.454 448.958 239.302L445.352 246.674L454.935 244.678C468.688 241.806 482.332 238.424 496.05 235.384C522.948 229.465 549.894 223.778 576.888 218.323C598.035 214.23 619.153 209.994 640.242 205.614C654.361 202.798 668.637 200.433 682.513 196.536C679.514 195.243 675.726 193.181 672.453 193.109ZM430.461 576.827C409.767 593.322 389.741 615.045 386.477 642.515C384.992 655.007 387.497 670.527 395.433 680.609C400.946 687.612 409.353 690.138 417.478 692.772L427.667 695.727C413.672 685.392 401.426 674.207 398.626 656.041C395.635 636.627 403.576 616.088 414.886 600.637C418.433 595.793 431.299 582.816 431.173 577.746C431.157 577.126 431.042 577.274 430.461 576.827ZM785.24 572.436C774.958 575.251 764.984 578.949 754.937 582.492C738.804 588.183 722.7 594.069 706.508 599.577C636.066 623.496 565.921 648.271 496.074 673.902C487.957 676.84 479.815 679.71 471.651 682.511C466.353 684.306 448.526 689.02 444.795 692.109L444.896 692.812C445.914 693.486 446.844 693.893 447.993 694.294C460.354 690.587 472.48 686.071 484.651 681.781C503.126 675.359 521.551 668.795 539.926 662.087C587.266 644.822 634.704 627.837 682.241 611.134L761.498 583.566C766.51 581.843 785.269 576.381 788.589 574.25L788.752 573.707C787.865 572.909 786.83 572.351 785.598 572.389C785.478 572.393 785.36 572.421 785.24 572.436ZM657.297 353.733C646.048 355.737 635.09 358.848 624.078 361.859L588.782 371.408C541.214 383.96 493.777 397 446.472 410.528C430.929 414.897 415.488 419.567 399.894 423.76C392.367 425.785 384.817 428.083 377.111 429.296C377.899 430.744 378.628 432.667 380.12 433.468C381.19 433.571 381.857 433.373 382.868 433.074C426.015 419.742 469.455 407.461 513.187 396.23C552.963 385.326 592.832 374.781 632.795 364.594C640.858 362.514 649.087 361.039 657.117 358.934C659.09 358.417 661.346 357.656 662.577 355.93C662.473 355.179 662.618 355.07 661.983 354.552C660.644 353.461 659.171 353.503 657.534 353.684C657.453 353.693 657.375 353.717 657.297 353.733ZM689.536 262.745C674.175 265.954 658.896 269.884 643.613 273.474L550.638 295.528C527.362 301.105 504.132 306.876 480.95 312.84C468.862 315.911 456.421 318.413 444.574 322.327C446.196 323.629 447.697 325.054 449.719 325.651C466.813 322.002 483.422 316.964 500.365 312.74C533.981 304.186 567.696 296.045 601.509 288.318C622.172 283.432 642.86 278.658 663.574 273.996C673.683 271.678 684.829 270.102 694.528 266.48C693.466 265.117 692.069 262.95 690.221 262.709C689.94 262.673 689.786 262.707 689.536 262.745ZM251.617 446.836C249.545 447.038 247.44 447.175 245.386 447.517C246.628 453.093 248.083 458.632 249.067 464.262C253.635 490.407 251.421 513.549 244.591 539C246.654 538.901 248.781 538.911 250.814 538.539L255.379 538.292C265.101 510.654 268.135 473.787 256.078 446.65C254.646 446.693 253.015 446.578 251.617 446.836ZM122.315 454.246C114.88 455.706 107.502 457.566 100.121 459.283C93.4421 460.835 86.6813 462.172 80.199 464.45C94.0349 468.051 107.711 472.187 121.229 476.858C131.112 480.184 143.889 483.909 153.069 488.414C146.757 481.648 128.376 457.064 122.315 454.246ZM634.517 408.41L634.655 408.788C637.011 415.14 640.364 420.903 642.106 427.532C646.839 445.541 646.681 477.248 639.007 494.173L638.477 495.332C641.612 495.188 644.788 495.135 647.903 494.748L648.725 494.349C648.666 493.134 648.629 491.919 648.614 490.703C648.583 486.682 651.708 478.916 652.553 474.407C656.809 451.697 655.328 427.243 641.322 408.075C639.071 408.167 636.754 408.161 634.517 408.41ZM323.541 342.369C311.617 362.495 307.33 383.938 313.094 406.817C314.076 410.713 314.981 414.624 318.535 416.939C319.769 414.632 317.723 402.969 317.554 399.575C316.589 380.166 321.817 362.662 329.094 344.982C327.253 344.087 325.423 343.171 323.541 342.369ZM220.102 304.249C208.988 327.062 203.618 345.536 211.909 370.492C212.876 373.401 214.386 377.246 217.273 378.667C217.675 378.865 218.096 379.024 218.511 379.191L218.935 378.859L218.838 377.886C212.645 357.031 212.372 335.612 222.758 316.047C224.409 312.905 226.318 309.931 228.487 307.125C225.817 305.974 222.991 304.71 220.102 304.249ZM147.286 191.147C145.947 196 144.757 200.832 144.143 205.843C142.609 218.348 142.653 239.916 148.754 250.879C150.136 253.362 151.859 255.013 153.952 256.851C155.482 253.889 152.468 242.423 152.03 238.441C151.603 234.573 151.41 230.639 151.24 226.75C151.02 221.085 151.094 215.425 151.463 209.769C151.832 204.113 152.493 198.491 153.447 192.904C151.403 192.235 149.378 191.65 147.286 191.147ZM440.668 652.619C429.966 656.717 419.243 660.756 408.498 664.736C409.95 667.548 411.339 670.425 412.983 673.127L413.673 673.925C417.239 672.969 420.709 671.408 424.179 670.136C430.026 667.992 436.054 665.975 442.099 664.474C442.06 661.636 442.933 654.835 441.329 652.647L440.668 652.619ZM440.185 639.46C428.333 642.845 416.717 646.989 404.873 650.395C404.895 652.389 404.548 656.592 405.976 658.027L406.623 657.821C418.227 654.54 430.126 652.845 441.775 649.892C441.645 646.523 441.904 643.168 441.32 639.835C440.64 639.294 441.022 639.409 440.185 639.46ZM368.909 361.667C359.712 376.933 353.392 398.272 357.713 416.046C359.071 421.628 361.432 427.333 364.822 431.982L365.482 431.91C365.048 428.214 362.783 424.111 362.115 419.72C358.79 397.854 363.741 383.48 371.535 363.662L368.909 361.667ZM129.263 271.14C128.626 271.855 128.005 272.585 127.402 273.33C126.799 274.075 126.214 274.834 125.648 275.607C125.082 276.381 124.535 277.167 124.006 277.968C123.478 278.768 122.969 279.581 122.48 280.406C121.992 281.231 121.523 282.067 121.074 282.916C120.625 283.764 120.196 284.622 119.789 285.491C119.382 286.36 118.995 287.239 118.63 288.127C118.266 289.015 117.922 289.911 117.6 290.816C117.278 291.721 116.979 292.633 116.701 293.552C116.423 294.472 116.168 295.397 115.935 296.329C115.702 297.26 115.491 298.198 115.303 299.14C115.115 300.082 114.95 301.029 114.807 301.979C114.665 302.929 114.545 303.882 114.449 304.838C114.353 305.794 114.279 306.752 114.229 307.712C114.179 308.671 114.152 309.632 114.148 310.593C114.145 311.554 114.164 312.514 114.206 313.475C114.588 322.824 117.134 331.72 121.206 340.092L121.717 339.922C121.092 336.201 119.835 332.629 119.222 328.857C117.388 317.569 118.624 304.911 121.858 293.986C123.276 289.194 125.167 284.323 127.563 279.936C128.617 278.005 130.257 275.936 130.964 273.901C131.261 273.049 131.148 272.808 130.867 272.001L129.263 271.14ZM114.787 427.931C113.725 430.643 112.789 433.404 113.96 436.259C114.914 438.589 136.764 461.597 140.395 465.736C145.988 472.109 151.298 478.731 156.793 485.19L157.151 484.551C152.355 473.262 134.121 453.976 126.116 443.464C122.792 439.099 118.681 431.146 114.787 427.931Z" fill="white"/>
<path d="M513.492 285.385C517.897 284.615 522.411 284.528 526.85 283.973C522.191 286.045 517.36 287.834 512.339 288.791C513.178 288.218 514.044 287.851 514.496 286.923L513.492 285.385Z" fill="white"/>
<path d="M652.888 244.55C654.669 244.334 656.572 244.422 658.372 244.38C642.474 251.681 624.272 254.514 607.293 258.279C591.095 261.943 574.873 265.502 558.628 268.955C542.062 272.431 525.415 275.64 509.015 279.856L505.622 283.669C504.876 283.151 504.106 282.64 503.403 282.066C502.465 281.303 501.992 280.97 501.904 279.741C502.785 278.348 503.943 277.077 504.98 275.797C504.437 274.075 503.534 271.959 503.697 270.137C503.791 269.1 504.161 268.611 504.916 267.973C505.871 268.074 506.142 268.134 506.908 268.788C508.835 270.436 509.146 273.189 509.311 275.563C523.809 272.162 538.204 268.277 552.707 264.874C568.101 261.262 583.629 258.154 599.085 254.823C616.959 250.971 634.778 247.138 652.888 244.55Z" fill="white"/>
<path d="M582.14 323.561C582.866 323.41 583.17 323.499 583.879 323.66L584.307 324.371C581.892 327.814 553.84 332.518 548.726 333.489C548.115 333.602 547.727 333.595 547.118 333.549C551.363 330.068 575.79 324.579 582.14 323.561Z" fill="white"/>
<path d="M432.084 361.207C433.63 360.919 435.334 360.99 436.909 360.928C421.214 367.06 403.263 369.849 386.689 372.423C385.81 372.499 384.963 372.476 384.082 372.457L383.629 371.964C388.383 367.543 423.756 362.24 432.084 361.207Z" fill="white"/>
<path d="M363.864 271.767C373.769 271.975 398.364 276.042 407.64 279.526C395.887 279.947 374.012 277.506 363.864 271.767Z" fill="white"/>
<path d="M178.811 212.615C179.44 212.495 180.062 212.461 180.701 212.456C191.061 212.384 245.883 223.611 251.371 229.096C250.601 229.143 249.828 229.167 249.058 229.115C236.762 228.28 186.559 221.242 178.811 212.615Z" fill="white"/>
<path d="M287.228 239.509C300.12 238.082 371.022 252.912 381.655 258.828C367.392 259.784 299.367 246.074 287.228 239.509Z" fill="white"/>
<path d="M519.857 181.251C525.755 180.653 533.502 182.089 539.567 182.586C551.363 183.474 563.142 184.543 574.906 185.792C581.362 186.492 588.241 187.056 594.552 188.632C595.83 188.951 596.45 189.315 597.116 190.448L596.691 191.621C596.169 191.781 595.642 191.925 595.111 192.052C591.22 192.982 586.894 192.86 582.93 192.607C572.289 191.928 527.232 185.929 519.857 181.251Z" fill="white"/>
<path d="M280.388 593.066L280.63 593.351C280.468 599.242 278.543 606.426 277.052 612.177C276.787 613.201 276.735 613.943 275.8 614.516L275.089 614.035C273.79 611.271 272.885 608.461 273.032 605.361C273.289 599.952 276.627 596.459 280.388 593.066Z" fill="white"/>
<path d="M313.906 606.6C314.166 608.278 314.237 609.877 314.185 611.571C314.067 615.437 314.113 627.099 311.576 629.505L310.431 628.613C309.18 626.283 308.509 624.237 308.433 621.567C308.283 616.34 310.295 610.404 313.906 606.6Z" fill="white"/>
<path d="M106.83 499.433L107.482 499.694C108.438 501.048 107.884 502.042 108.217 503.488C108.768 505.88 112.685 506.426 114.714 507.07C126.448 510.789 134.995 514.515 145.046 521.821C138.627 520.397 132.476 518.289 126.273 516.134C120.009 513.681 113.523 511.642 107.145 509.506C106.749 511.172 106.417 513.454 105.346 514.815C104.677 515.665 104.264 515.828 103.226 515.957C102.763 515.703 102.646 515.672 102.222 515.258C100.155 513.239 100.463 509.395 100.4 506.771L90.405 500.655C94.3083 501.745 98.2223 502.794 102.147 503.802C103.635 502.197 105.115 500.793 106.83 499.433Z" fill="white"/>
<path d="M703.828 541.353C704.532 541.606 704.769 541.765 705.198 542.385L704.862 543.403C698.574 549.234 678.925 553.795 670.239 556.142C669.544 556.064 669.91 556.158 669.16 555.8C671.392 552.139 698.392 543.274 703.828 541.353Z" fill="white"/>
<path d="M576.052 608.07L576.331 608.331C567.763 614.711 527.012 627.888 514.558 630.861C512.024 631.465 509.454 631.761 506.865 632.014C506.702 631.795 506.463 631.495 506.35 631.254C506.123 630.769 505.962 630.363 506.22 629.875C508.256 626.025 568.09 609.978 576.052 608.07Z" fill="white"/>
<path d="M704.233 530.728C705.187 530.598 705.716 530.597 706.631 530.908L706.797 531.488C701.284 537.08 653.574 550.101 642.027 553.305C640.936 553.453 640.407 553.592 639.396 553.046L639.581 552.273C647.024 544.683 691.939 533.283 704.233 530.728Z" fill="white"/>
<path d="M540.376 454.692C542.26 454.411 544.441 454.384 546.344 454.452C547.877 454.507 550.034 454.74 551.112 455.871C548.676 457.829 494.603 464.22 488.138 464.825C480.993 465.428 473.838 465.885 466.674 466.197C463.664 466.656 459.201 466.976 456.351 465.9L456.229 465.433C463.344 459.817 527.668 455.423 540.376 454.692Z" fill="white"/>
</svg>
