<svg width="38" height="38" viewBox="0 0 38 38" fill="none" xmlns="http://www.w3.org/2000/svg">
<path d="M28.5 12.667C28.5 18.3876 22.3741 24.4296 19.9611 26.5924C19.685 26.8032 19.3473 26.9175 19 26.9175C18.6527 26.9175 18.315 26.8032 18.0389 26.5924C15.6275 24.4296 9.5 18.3876 9.5 12.667C9.5 10.1474 10.5009 7.73107 12.2825 5.94948C14.0641 4.16788 16.4804 3.16699 19 3.16699C21.5196 3.16699 23.9359 4.16788 25.7175 5.94948C27.4991 7.73107 28.5 10.1474 28.5 12.667Z" stroke="#CFD0AB" stroke-width="2" stroke-linecap="round" stroke-linejoin="round"/>
<path d="M19 15.8333C20.7489 15.8333 22.1667 14.4156 22.1667 12.6667C22.1667 10.9178 20.7489 9.5 19 9.5C17.2511 9.5 15.8333 10.9178 15.8333 12.6667C15.8333 14.4156 17.2511 15.8333 19 15.8333Z" stroke="#CFD0AB" stroke-width="2" stroke-linecap="round" stroke-linejoin="round"/>
<path d="M13.7972 22.167H7.923C7.59102 22.1671 7.26749 22.2716 6.99813 22.4657C6.72878 22.6597 6.52724 22.9336 6.422 23.2484L3.249 32.7484C3.16946 32.9864 3.14762 33.2399 3.18528 33.488C3.22295 33.7361 3.31904 33.9717 3.46564 34.1753C3.61223 34.379 3.80514 34.5449 4.02845 34.6593C4.25175 34.7738 4.49907 34.8336 4.75 34.8337H33.25C33.5008 34.8335 33.7479 34.7737 33.971 34.6594C34.1942 34.545 34.3869 34.3792 34.5335 34.1758C34.6801 33.9723 34.7762 33.737 34.814 33.4891C34.8518 33.2412 34.8302 32.9879 34.751 32.75L31.5843 23.25C31.4793 22.9346 31.2776 22.6602 31.0079 22.4659C30.7382 22.2715 30.4142 22.1669 30.0818 22.167H24.2044" stroke="#CFD0AB" stroke-width="2" stroke-linecap="round" stroke-linejoin="round"/>
</svg>
